<?xml version="1.0" encoding="utf-8"?>
<!-- Generator: Adobe Illustrator 26.3.1, SVG Export Plug-In . SVG Version: 6.00 Build 0)  -->
<svg version="1.1" id="Livello_1" xmlns="http://www.w3.org/2000/svg" xmlns:xlink="http://www.w3.org/1999/xlink" x="0px" y="0px"
	 width="244.593px" height="188.889px" viewBox="0 0 244.593 188.889" style="enable-background:new 0 0 244.593 188.889;"
	 xml:space="preserve">
<style type="text/css">
	.st0{fill:#B5B5B5;}
</style>
<g id="BACKGROUND">
</g>
<g id="OBJECTS">
</g>
<path class="st0" d="M122.519,112.088c19.8,0.001,34.929-2.263,42.38-5.864c-10.789,2.983-42.38,2.624-42.38,2.624
	s-31.59,0.361-42.38-2.624C87.592,109.825,102.719,112.088,122.519,112.088z"/>
<ellipse class="st0" cx="122.521" cy="103.009" rx="5.006" ry="1.724"/>
<g>
	<path class="st0" d="M76.977,120.131c0.325-0.738,0.722-1.498,1.199-2.281c-1.638,0.893-3.262,1.641-4.866,2.281H76.977z"/>
	<path class="st0" d="M171.73,120.131c-1.604-0.64-3.228-1.388-4.866-2.281c0.476,0.783,0.873,1.543,1.198,2.281H171.73z"/>
</g>
<path class="st0" d="M22.747,94.153c-1.666,7.598-3.281,17.469-2.047,25.891h7.693c2.702-2.848,7.69-3.241,14.932,0h0
	c-15.795-12.277-18.465-28.874-9.788-31.069c8.677-2.194,39.098,16.323,39.098,16.323c-9.732-10.357-26.863-21.639-26.863-24.382
	c0-1.146,2.139-6.142,5.404-11.889c3.136,2.877,45.102,4.105,71.345,4.105c26.247,0,68.223-1.227,71.347-4.106
	c3.265,5.747,5.405,10.744,5.405,11.89c0,2.743-17.13,14.025-26.863,24.382c0,0,30.421-18.517,39.098-16.323
	c8.677,2.196,6.007,18.792-9.788,31.069h0c7.242-3.241,12.231-2.848,14.932,0h7.693c1.234-8.422-0.382-18.293-2.048-25.891
	c-2.706-12.346-8.119-19.65-22.358-19.65c0,0,0-1.92,12.903-5.899s12.31-10.562,0-10.562s-7.193,5.007-9.195,6.859
	c-2.002,1.852-7.564,2.881-7.564,2.881s-6.488-12.86-13.407-19.049h-6.994c0.236,0.084,0.464,0.169,0.675,0.256
	c4.903,2.015,10.13,8.332,14.355,14.841c-1.672,8.224-68.191,7.931-68.191,7.931s-66.511,0.293-68.192-7.929
	c4.224-6.509,9.453-12.827,14.356-14.843c0.211-0.087,0.439-0.172,0.675-0.256h-6.994c-6.918,6.189-13.407,19.049-13.407,19.049
	s-5.562-1.029-7.564-2.881c-2.002-1.852,3.115-6.859-9.195-6.859s-12.903,6.584,0,10.562c12.903,3.978,12.903,5.899,12.903,5.899
	C30.866,74.503,25.453,81.807,22.747,94.153z"/>
</svg>
