<?xml version="1.0" encoding="utf-8"?>
<!-- Generator: Adobe Illustrator 26.3.1, SVG Export Plug-In . SVG Version: 6.00 Build 0)  -->
<svg version="1.1" id="Livello_1" xmlns="http://www.w3.org/2000/svg" xmlns:xlink="http://www.w3.org/1999/xlink" x="0px" y="0px"
	 width="244.593px" height="188.889px" viewBox="-14 -48 244.593 188.889" style="enable-background:new 0 0 244.593 188.889;"
	 xml:space="preserve">
<style type="text/css">
	.st0{fill:#B5B5B5;}
</style>
<g id="BACKGROUND">
</g>
<g id="OBJECTS">
</g>
<g>
	<path class="st0" d="M143.684,129.477c25.082,0.002,44.246-2.867,53.685-7.428c-13.667,3.779-53.685,3.324-53.685,3.324
		s-40.017,0.457-53.685-3.324C99.44,126.611,118.602,129.477,143.684,129.477z"/>
	<ellipse class="st0" cx="143.686" cy="117.978" rx="6.341" ry="2.184"/>
	<g>
		<path class="st0" d="M85.993,139.667c0.411-0.935,0.915-1.898,1.518-2.89c-2.075,1.132-4.132,2.079-6.164,2.89H85.993z"/>
		<path class="st0" d="M206.022,139.667c-2.032-0.811-4.089-1.758-6.164-2.89c0.603,0.992,1.106,1.955,1.518,2.89H206.022z"/>
	</g>
	<g>
		<path class="st0" d="M143.684,80.13c29.12,0,73.523-1.192,86.759-3.939V62.307c-2.985-4.597-6.718-9.651-10.556-13.084h-8.859
			c0.299,0.106,0.588,0.214,0.855,0.324c6.21,2.553,12.833,10.555,18.184,18.8c-2.119,10.417-86.381,10.046-86.381,10.046
			s-84.253,0.371-86.382-10.044c5.351-8.246,11.974-16.249,18.185-18.802c0.267-0.11,0.556-0.217,0.855-0.324h-8.859
			c-8.764,7.84-16.983,24.131-16.983,24.131s-7.045-1.303-9.581-3.649c-2.536-2.345,3.946-8.688-11.647-8.688s-16.346,8.34,0,13.379
			c16.345,5.039,16.345,7.472,16.345,7.472c-18.037,0-24.893,9.252-28.322,24.892c-2.117,9.658-4.173,22.215-2.58,32.908h9.619
			c3.396-3.712,9.757-4.26,19.028-0.11c-20.009-15.552-23.391-36.576-12.4-39.358c10.991-2.779,49.527,20.677,49.527,20.677
			c-12.328-13.12-34.028-27.411-34.028-30.886c0-1.451,2.71-7.78,6.845-15.06C57.28,78.575,110.441,80.13,143.684,80.13z"/>
		<path class="st0" d="M230.443,100.252c-7.268,5.917-16.816,13.444-23.563,20.624c0,0,11.398-6.934,23.563-12.816V100.252z"/>
	</g>
</g>
</svg>
